<?xml version="1.0" encoding="UTF-8"?>
<svg xmlns="http://www.w3.org/2000/svg" xmlns:xlink="http://www.w3.org/1999/xlink" width="40" height="40" viewBox="0 0 40 40" version="1.1">
<g id="surface1">
<path style=" stroke:none;fill-rule:nonzero;fill:rgb(0%,0%,0%);fill-opacity:1;" d="M 31.816406 8.164062 C 30.605469 8.203125 30.003906 8.308594 29.144531 8.628906 C 28.515625 8.863281 28.171875 9.03125 27.597656 9.386719 C 26.816406 9.871094 25.769531 10.898438 25.25 11.699219 C 25.167969 11.828125 25.085938 11.941406 25.074219 11.953125 C 25.058594 11.964844 25.007812 12.050781 24.960938 12.148438 C 24.917969 12.246094 24.855469 12.367188 24.824219 12.421875 C 24.378906 13.21875 24.101562 14.019531 23.960938 14.902344 C 23.894531 15.300781 23.890625 15.878906 23.878906 22.972656 L 23.867188 30.613281 L 24.597656 30.636719 C 25.003906 30.652344 26.109375 30.664062 27.058594 30.664062 L 28.789062 30.664062 L 28.796875 26.667969 L 28.808594 22.675781 L 30.148438 22.664062 L 31.484375 22.65625 L 31.484375 18.242188 L 28.789062 18.242188 L 28.789062 17.078125 C 28.789062 15.835938 28.8125 15.652344 29 15.203125 C 29.28125 14.539062 29.753906 13.972656 30.390625 13.546875 C 30.835938 13.25 31.082031 13.140625 31.738281 12.957031 L 32.167969 12.839844 L 33.703125 12.820312 L 35.234375 12.804688 L 35.234375 8.125 L 33.957031 8.132812 C 33.25 8.136719 32.289062 8.152344 31.816406 8.164062 Z M 31.816406 8.164062 "/>
<path style=" stroke:none;fill-rule:nonzero;fill:rgb(0%,0%,0%);fill-opacity:1;" d="M 5.757812 8.464844 C 5.765625 8.632812 5.777344 10.882812 5.777344 13.464844 L 5.78125 18.164062 L 7.894531 18.164062 C 9.804688 18.164062 10.007812 18.171875 9.984375 18.226562 C 9.972656 18.261719 9.960938 18.671875 9.960938 19.144531 L 9.960938 20 L 5.792969 20 L 5.769531 21.257812 C 5.753906 21.953125 5.742188 24.34375 5.742188 26.570312 L 5.742188 30.625 L 10.703125 30.625 L 10.703125 22.695312 L 21.992188 22.695312 L 21.992188 18.242188 L 16.339844 18.234375 L 10.683594 18.222656 L 10.683594 12.832031 L 16.660156 12.820312 L 22.636719 12.8125 L 22.828125 12 C 22.929688 11.554688 23.039062 11.078125 23.070312 10.9375 C 23.164062 10.472656 23.582031 8.785156 23.710938 8.359375 C 23.730469 8.285156 23.75 8.210938 23.75 8.195312 C 23.75 8.175781 19.699219 8.164062 14.746094 8.164062 L 5.738281 8.164062 Z M 5.757812 8.464844 "/>
<path style=" stroke:none;fill-rule:nonzero;fill:rgb(0%,0%,0%);fill-opacity:1;" d="M 39.375 39.6875 L 39.375 40 L 40 40 L 40 39.375 L 39.375 39.375 Z M 39.375 39.6875 "/>
</g>
</svg>
